<?xml version="1.0" encoding="UTF-8"?>
<svg xmlns="http://www.w3.org/2000/svg" viewBox="0 0 86.2 33">
<path d="m47,33h2c6-.3,10.2-5,10.2-10.6,0-1.9-.4-3.8-1.3-5.3h-10.9v15.9Zm-11-16h10v16h-10v-16Zm21.3-1c-1-1.4-2.4-2.5-3.9-3.3,1.8-1.3,3-3.4,3-5.7,0-3.9-3.1-7-7-7h-2.4v16h10.3ZM36,0h10v16h-10V0Zm38,33h2c6-.3,10.2-5,10.2-10.6,0-1.9-.4-3.8-1.3-5.3h-10.9v15.9Zm-11-16h10v16h-10v-16Zm21.3-1c-1-1.4-2.4-2.5-3.9-3.3,1.8-1.3,3-3.4,3-5.7,0-3.9-3.1-7-7-7h-2.4v16h10.3ZM63,0h10v16h-10V0ZM5.7,17L0,33h8.3l2.4-7h5.3v-9H5.7ZM16,0h-4.3l-5.7,16h10V0Zm1,26h5.3l2.4,7h8.3l-5.7-16h-10.3v9Zm10-10L21.3,0h-4.3v16h10Z" fill="#ff000f"/>
</svg>
