<?xml version="1.0" encoding="UTF-8"?>
<svg xmlns="http://www.w3.org/2000/svg" viewBox="0 0 434.66 117.69">
<path d="m67.06,59.79c0-19.84-14.16-34.63-33.87-34.63-7.2-.1-14.24,2.1-20.1,6.27V0H0v59.79c0,19.84,13.46,34.63,33.18,34.63s33.88-14.79,33.88-34.63Zm-33.87,22.88c-1.49,0-2.97-.15-4.43-.45-9.92-1.79-16.23-10.5-16.23-22.52,0-13.52,8-22.88,20.1-22.88,1.5,0,3,.15,4.47.45,10,1.79,16.31,10.5,16.31,22.52,0,13.54-7.96,22.88-20.22,22.88Zm69.73-4.84l-19.73-51.73h-13.59l19.78,51.73h13.54Zm23.83-51.73l-24.99,68.32-8.51,23.26h13.61s8.5-23.26,8.5-23.26l24.98-68.32h-13.59Zm95.42,66.98h13v-33.95c.2-13.22,5.87-22.28,17.85-22.28s18,9.34,18,22.87v33.36h13v-34.18c-.34-19.42-11.49-33.81-31-33.81s-30.88,14.79-30.88,34.63l.03,33.36Zm-45.24-67.99c-19.71,0-33.74,14.78-33.74,34.63s14,34.63,33.74,34.63,33.86-14.79,33.86-34.63-14.14-34.63-33.86-34.63Zm0,57.5c-12.13,0-20.09-9.35-20.09-22.87v-.13c0-13.45,8-22.75,20.09-22.75s20.17,9.3,20.22,22.75v.13c0,13.52-7.96,22.87-20.22,22.87Zm244.13-56.49l-24.99,68.32-8.51,23.26h13.61s8.51-23.26,8.51-23.26l24.98-68.32h-13.6Zm-23.66,51.73l-19.9-51.73h-13.59l19.94,51.74h13.55Zm-68.01-52.74c-19.72,0-33.75,14.78-33.75,34.63s14.03,34.61,33.75,34.61,33.87-14.79,33.87-34.63-14.16-34.61-33.87-34.61Zm20.22,34.63c0,13.52-8,22.87-20.22,22.87s-20.1-9.35-20.1-22.87v-.26c0-13.52,8-22.87,20.1-22.87s20.22,9.35,20.22,22.87v.26Z" fill="#1d1700"/>
</svg>
