<?xml version="1.0" encoding="UTF-8"?><svg id="Layer_2" xmlns="http://www.w3.org/2000/svg" viewBox="0 0 331.99 164.62"><g id="Ebene_1"><path d="m219.2,75.43c-.75-1.1-1.63-2.13-2.67-3.06-3.53-3.19-7.96-4.79-13.29-4.79-4.34,0-8.09,1-11.27,2.99-3.18,1.99-5.62,4.79-7.32,8.39-1.7,3.6-2.55,7.72-2.55,12.35v1.36c0,7.5,1.91,13.41,5.74,17.73,3.82,4.32,8.97,6.48,15.45,6.48,3.22,0,6.28-.73,9.16-2.2,2.79-1.42,5.03-3.31,6.74-5.66l-6.26-3.63c-.54.8-1.21,1.54-2.04,2.22-2.17,1.76-4.7,2.64-7.6,2.64-4.19,0-7.41-1.48-9.67-4.44-2.26-2.96-3.38-7.18-3.38-12.66v-1.54c0-5.62,1.14-9.92,3.41-12.9,2.27-2.97,5.47-4.46,9.6-4.46,3.08,0,5.66.99,7.76,2.97.65.61,1.16,1.3,1.62,2.03l6.58-3.82h0Z" fill="#2d3884"/><path d="m271.58,92.95v-.57c0-7.44-2-13.4-6-17.89-4-4.48-9.24-6.72-15.71-6.72-4.19,0-7.92,1.01-11.18,3.03-3.27,2.02-5.82,4.89-7.65,8.61-1.83,3.72-2.75,7.91-2.75,12.57v.57c0,7.38,2,13.32,6,17.8,4,4.48,9.22,6.72,15.67,6.72,4.28,0,8.06-1.03,11.36-3.08,3.3-2.05,5.83-4.91,7.6-8.59,1.77-3.68,2.66-7.83,2.66-12.46h0Zm-8.13-.97c0,5.83-1.22,10.36-3.65,13.6-2.43,3.24-5.71,4.86-9.84,4.86s-7.38-1.6-9.82-4.79c-2.45-3.19-3.67-7.43-3.67-12.7,0-5.95,1.23-10.52,3.69-13.71,2.46-3.19,5.7-4.79,9.71-4.79s7.39,1.62,9.86,4.86c2.48,3.24,3.71,7.46,3.71,12.68h0Zm-125.62,2.77h32.21v-3.38c0-7.59-1.71-13.42-5.14-17.49-3.43-4.07-8.23-6.11-14.41-6.11-3.78,0-7.29,1.05-10.52,3.14-3.24,2.1-5.76,5-7.56,8.7-1.8,3.71-2.7,7.92-2.7,12.63v1.49c0,7.09,2.02,12.75,6.06,16.99,4.04,4.23,9.29,6.35,15.73,6.35,7.97,0,13.95-3.06,17.93-9.18l-4.97-3.87c-1.49,1.93-3.24,3.49-5.23,4.66-1.99,1.17-4.42,1.76-7.29,1.76-4.04,0-7.38-1.44-10-4.33-2.62-2.89-3.99-6.67-4.11-11.36h0Zm.26-6.68c.53-4.31,1.9-7.65,4.13-10.04,2.23-2.39,4.98-3.58,8.26-3.58s6.09,1.14,8.09,3.41c1.99,2.27,3.1,5.47,3.34,9.6v.62h-23.82Zm-30.29,28.12h8.13v-31.42c-.09-11.34-5.16-17.01-15.2-17.01-5.77,0-10.46,2.21-14.06,6.64v-25.71h-8.13v67.5h8.13v-33.88c1.11-2.29,2.67-4.13,4.66-5.54,1.99-1.41,4.31-2.11,6.94-2.11,3.25,0,5.65.82,7.19,2.46,1.54,1.64,2.32,4.18,2.35,7.6v31.46h0Zm-53.35,0h8.13v-31.42c-.09-11.34-5.16-17.01-15.21-17.01-5.86,0-10.61,2.29-14.24,6.86l-.26-5.98h-7.69v47.55h8.13v-33.88c1.11-2.29,2.67-4.13,4.66-5.54,1.99-1.41,4.31-2.11,6.94-2.11,3.25,0,5.65.82,7.18,2.46,1.54,1.64,2.32,4.18,2.35,7.6v31.46h0ZM8.39,59.33c.82-.88,1.23-1.98,1.23-3.3s-.41-2.43-1.23-3.34c-.82-.91-2.02-1.36-3.6-1.36s-2.78.45-3.58,1.36c-.81.91-1.21,2.02-1.21,3.34s.4,2.42,1.21,3.3c.8.88,2,1.32,3.58,1.32s2.78-.44,3.6-1.32h0Zm.4,9.32H.66v47.55h8.13v-47.55h0Z" fill="#2d3884"/><polygon points="331.99 73.52 288.06 48.03 288.06 99.01 331.99 73.52 331.99 73.52" fill="#c7362d"/><rect x=".66" width="331.33" height="164.62" fill="none"/></g></svg>