<?xml version="1.0" encoding="UTF-8"?>
<svg xmlns="http://www.w3.org/2000/svg" viewBox="0 0 850.4 297.6">
<path d="m560.8,131.5c-1.9-2.8-4.1-5.4-6.8-7.8-8.9-8.1-20.2-12.1-33.6-12.1-11,0-20.5,2.5-28.5,7.6-8,5-14.2,12.1-18.5,21.2-4.3,9.1-6.5,19.5-6.5,31.3v3.4c0,19,4.8,33.9,14.5,44.9,9.7,10.9,22.7,16.4,39.1,16.4,8.2,0,15.9-1.9,23.2-5.6,7.1-3.6,12.7-8.4,17.1-14.3l-15.8-9.2c-1.4,2-3.1,3.9-5.2,5.6-5.5,4.4-11.9,6.7-19.2,6.7-10.6,0-18.8-3.7-24.5-11.2s-8.6-18.2-8.6-32v-3.9c0-14.2,2.9-25.1,8.6-32.6s13.8-11.3,24.3-11.3c7.8,0,14.3,2.5,19.6,7.5,1.6,1.5,2.9,3.3,4.1,5.1l16.7-9.7h0ZM28.2,114.4H7.7v120.4h20.6v-120.4h-.1Zm-1-23.6c2.1-2.2,3.1-5,3.1-8.3s-1-6.2-3.1-8.5-5.1-3.4-9.1-3.4-7,1.1-9.1,3.4c-2,2.3-3,5.1-3,8.4s1,6.1,3.1,8.3c2,2.2,5.1,3.3,9.1,3.3s7-1,9-3.2h0Zm116.6,143.9h20.6v-79.5c-.2-28.7-13.1-43-38.5-43-14.8,0-26.8,5.8-36,17.4l-.7-15.1h-19.4v120.4h20.6v-85.9c2.8-5.8,6.7-10.5,11.8-14,5-3.6,10.9-5.3,17.6-5.3,8.2,0,14.3,2.1,18.2,6.2,3.9,4.2,5.9,10.6,6,19.2v79.6h-.2Zm135.1,0h20.6v-79.5c-.2-28.7-13.1-43-38.5-43-14.6,0-26.5,5.6-35.6,16.8V63.9h-20.6v170.9h20.6v-85.8c2.8-5.8,6.7-10.5,11.8-14,5-3.6,10.9-5.3,17.6-5.3,8.2,0,14.3,2.1,18.2,6.2,3.9,4.2,5.9,10.6,6,19.2v79.6h-.1Zm76.6-71.2c1.3-10.9,4.8-19.4,10.5-25.4,5.6-6,12.6-9.1,20.9-9.1s15.4,2.9,20.5,8.6c5,5.7,7.9,13.8,8.5,24.3v1.6h-60.4Zm-.6,16.9h81.5v-8.6c0-19.2-4.3-34-13-44.3s-20.8-15.5-36.5-15.5c-9.6,0-18.4,2.7-26.6,8s-14.6,12.6-19.1,22c-4.6,9.4-6.8,20-6.8,32v3.8c0,17.9,5.1,32.3,15.3,43,10.2,10.7,23.5,16.1,39.8,16.1,20.2,0,35.3-7.7,45.4-23.2l-12.6-9.8c-3.8,4.9-8.2,8.8-13.2,11.8s-11.2,4.4-18.5,4.4c-10.2,0-18.7-3.7-25.3-11-6.7-7.2-10.1-16.8-10.4-28.7h0Zm317.9-7c0,14.8-3.1,26.2-9.2,34.4-6.2,8.2-14.5,12.3-24.9,12.3s-18.7-4-24.9-12.1-9.3-18.8-9.3-32.1c0-15.1,3.1-26.6,9.3-34.7,6.2-8.1,14.4-12.1,24.6-12.1s18.7,4.1,25,12.3c6.3,8.1,9.4,18.8,9.4,32h0Zm20.6,2.5v-1.4c0-18.8-5.1-33.9-15.2-45.3-10.1-11.3-23.4-17-39.8-17-10.6,0-20,2.6-28.3,7.7s-14.7,12.4-19.4,21.8c-4.6,9.4-7,20-7,31.8v1.4c0,18.7,5.1,33.7,15.2,45.1,10.1,11.3,23.3,17,39.7,17,10.8,0,20.4-2.6,28.8-7.8,8.3-5.2,14.8-12.4,19.2-21.7,4.6-9.4,6.8-19.9,6.8-31.6h0Z" fill="#243588"/>
<polygon points="846.3 126.7 735.1 62.2 735.1 191.2 846.3 126.7 846.3 126.7" fill="#e63329"/>
</svg>
