<?xml version="1.0" encoding="UTF-8"?>
<svg xmlns="http://www.w3.org/2000/svg" xmlns:xlink="http://www.w3.org/1999/xlink" viewBox="0 0 132 32">
<defs>
  <linearGradient id="drop" x1="11.37" y1="13.44" x2="23.38" y2="13.05" gradientTransform="translate(0 32) scale(1 -1)" gradientUnits="userSpaceOnUse">
    <stop offset="0" stop-color="#006fff"/>
    <stop offset=".16" stop-color="#037ffa"/>
    <stop offset=".48" stop-color="#0babef"/>
    <stop offset=".92" stop-color="#19f1dd"/>
    <stop offset="1" stop-color="#1cffda"/>
  </linearGradient>
</defs>
<path d="m39.54,20.01c.31.35.7.52,1.71.52,1.08,0,1.48-.17,1.76-.52.47-.54.7-2.07.7-3.79s-.23-3.04-.7-3.61c-.28-.35-.68-.49-1.71-.49s-1.46.14-1.76.49c-.47.57-.73,1.86-.73,3.61s.26,3.25.73,3.79Zm5.8,1.6c-.87.9-2.11,1.27-4.08,1.27s-3.15-.38-3.99-1.27c-.92-.99-1.57-3.02-1.57-5.37s.63-4.24,1.57-5.21c.84-.92,2.11-1.23,4.04-1.23s3.17.33,4.04,1.23c.89.99,1.5,2.83,1.5,5.21s-.61,4.38-1.5,5.37Zm6.01-1.46c0,.12.05.21.19.24.42.09.94.09,1.36.09,2.11,0,2.84-.78,2.84-4.29s-.61-4.1-2.89-4.1c-.59,0-.96.05-1.31.12-.16.02-.19.16-.19.28v7.66Zm7.58-3.98c0,4.45-1.48,6.48-5.82,6.48-.52,0-1.29-.05-1.57-.05-.14,0-.19.05-.19.19v3.87c0,.14-.09.24-.23.24h-2.61c-.14,0-.23-.09-.23-.24V10.56c0-.09.05-.19.26-.26.89-.31,2.86-.49,4.34-.49,4.86,0,6.06,1.77,6.06,6.36Zm4.48-.8h4.34c.19,0,.26-.05.26-.68,0-1.79-.45-2.73-2.23-2.73-2.09,0-2.51,1.41-2.51,3.25,0,.09.05.17.14.17Zm2.84,7.52c-4.58,0-6.03-2.52-6.03-6.51,0-4.22,1.78-6.58,5.61-6.58s4.88,2.05,4.88,5.47c0,1.6-.07,2-.63,2h-6.62c-.12,0-.14.05-.14.14,0,2.52,1.2,3.16,3.38,3.16,1.2,0,2.58-.31,3.31-.54.12,0,.21.02.26.12l.16,1.84c0,.09-.05.17-.16.21-.92.42-2.37.68-4.01.68Zm13.43-.24c-.14,0-.24-.09-.24-.24v-7.97c0-1.79-.4-2.26-2.28-2.26-.7,0-1.27.05-1.67.14-.16.05-.24.09-.24.24v9.85c0,.14-.09.24-.24.24h-2.61c-.14,0-.23-.09-.23-.24v-11.88c0-.14.09-.21.23-.24,1.27-.21,3.38-.49,4.86-.49,4.13,0,5.24,1.06,5.24,4.5v8.11c0,.14-.09.24-.24.24h-2.61Zm8.71.24c-1.88,0-2.84-.87-2.84-2.59v-7.73c0-.09-.05-.14-.14-.14h-1.62c-.14,0-.24-.09-.24-.24v-1.91c0-.14.09-.24.24-.24h1.62c.09,0,.14-.05.14-.14v-2.95c0-.14.09-.24.24-.24h2.61c.14,0,.24.09.24.24v2.95c0,.09.05.14.14.14h1.97c.14,0,.24.09.24.24v1.91c0,.14-.09.24-.24.24h-1.97c-.09,0-.14.05-.14.14v7c0,.78.26.99,1.01.99h.73c.12,0,.23.05.23.24l-.07,1.58c0,.14-.12.28-.23.31-.52.12-1.24.21-1.9.21Zm8.63-10.65c-.38,0-.99.05-1.36.19-.14.07-.16.14-.16.26v9.73c0,.17-.09.26-.26.24h-2.58c-.14,0-.24-.09-.24-.24v-11.88c0-.14.09-.21.24-.24,1.17-.26,2.91-.49,4.41-.49.77,0,1.27.02,1.9.09.12.02.14.07.14.19l-.12,2.17c0,.07-.05.14-.16.12-.56-.09-1.15-.14-1.81-.14Zm6.34,7.78c.31.35.71.52,1.71.52,1.08,0,1.48-.17,1.76-.52.47-.54.7-2.07.7-3.79s-.23-3.04-.7-3.61c-.28-.35-.68-.49-1.71-.49s-1.46.14-1.76.49c-.47.57-.73,1.86-.73,3.61s.26,3.25.73,3.79Zm5.8,1.6c-.87.9-2.11,1.27-4.08,1.27s-3.15-.38-3.99-1.27c-.92-.99-1.57-3.02-1.57-5.37s.63-4.24,1.57-5.21c.85-.92,2.11-1.23,4.04-1.23s3.17.33,4.04,1.23c.89.99,1.5,2.83,1.5,5.21s-.61,4.38-1.5,5.37Zm10.4,1.04c-.14,0-.24-.09-.24-.24v-7.97c0-1.79-.4-2.26-2.28-2.26-.7,0-1.27.05-1.67.14-.16.05-.24.09-.24.24v9.85c0,.14-.09.24-.23.24h-2.61c-.14,0-.24-.09-.24-.24v-11.88c0-.14.09-.21.24-.24,1.27-.21,3.38-.49,4.86-.49,4.13,0,5.23,1.06,5.23,4.5v8.11c0,.14-.09.24-.23.24h-2.61Zm4.41-.21l.12-2.05c0-.07.09-.12.19-.09.78.16,1.9.26,2.68.26,1.67,0,1.92-.17,1.92-1.34,0-.71-.4-1.06-2.25-2.33-1.9-1.27-2.56-1.93-2.56-3.51,0-2.66,1.41-3.56,4.46-3.56,1.13,0,2.42.12,3.15.26.07.02.12.05.12.17l-.14,2.1s-.07.12-.16.09c-.7-.12-1.71-.24-2.39-.24-1.48,0-1.97.09-1.97,1.11,0,.82.4,1.08,2.25,2.24,2.07,1.32,2.63,2.19,2.63,3.65,0,3.02-1.64,3.7-4.55,3.7-1.29,0-2.58-.12-3.33-.26-.07-.02-.14-.07-.14-.19ZM18.84,0l-.61,3.93c5.64,1.03,9.93,5.99,9.93,11.95,0,6.7-5.43,12.15-12.1,12.15S3.96,22.58,3.96,15.88c0-5.96,4.29-10.92,9.93-11.95l-.61-3.93C5.74,1.33,0,7.94,0,15.88c0,8.89,7.2,16.12,16.06,16.12s16.06-7.23,16.06-16.12c0-7.94-5.74-14.55-13.28-15.88Zm-2.78,6.72s2.49,3.49,4.68,6.83c1.89,2.88,2.44,6.44.11,8.98-1.29,1.4-3.03,2.09-4.76,2.09,0,0,0,0,0,0,0,0,0,0,0,0h0s0,0,0,0c0,0,0,0,0,0h0s0,0,0,0h0s0,0,0,0h0s0,0,0,0c0,0,0,0,0,0h0s0,0,0,0c0,0,0,0,0,0-1.74,0-3.47-.69-4.76-2.09-2.33-2.54-1.78-6.1.11-8.98,2.19-3.34,4.68-6.83,4.68-6.83h0s0,0,0,0Zm1.24,8.6c.42-.39.99-.72,1.54-.67.08,0,.15.02.23.04,1.29.38,1.81,2.54,1.77,3.69-.09,2.61-2.26,4.65-4.85,4.56-.13,0-.24-.01-.33-.03-1.2-.09-2.36-.61-3.21-1.6-.73-.85-1.05-1.85-1.05-2.87,2.36.13,4.23-1.59,5.85-3.08.02-.02.03-.03.05-.05Z" fill="#231f20"/>
<path d="m18.87,14.57c-.56-.05-1.13.28-1.55.68-1.64,1.51-3.54,3.29-5.94,3.16,0,1.03.32,2.04,1.06,2.9.86,1,2.03,1.53,3.23,1.62.1.01.2.02.33.03,2.62.09,4.81-1.98,4.89-4.61.04-1.15-.49-3.35-1.79-3.73-.08-.02-.16-.04-.23-.04h0Z" fill="url(#drop)"/>
</svg>
