<?xml version="1.0" encoding="UTF-8"?><svg id="Layer_2" xmlns="http://www.w3.org/2000/svg" viewBox="0 0 54 25.63"><g id="Layer_1-2"><path d="m7.39.08c-1.17.16-2.23.47-3.28.99-.89.44-1.15.63-1.92,1.4-.74.73-.96,1.02-1.29,1.71C-.01,6.09-.03,8.16.85,9.95c.27.57.56.94,1.24,1.62,1.24,1.24,2.28,1.84,5.04,2.9,2.43.94,3.42,1.63,3.98,2.8.21.42.25.66.25,1.28,0,1.27-.58,2.24-1.66,2.8-.93.48-1.39.57-3.06.56-1.29,0-1.66-.04-2.55-.25-1.07-.27-2.35-.73-2.91-1.07-.18-.11-.34-.19-.35-.17-.08.09-.83,3.01-.83,3.22,0,.49.32.74,1.45,1.1.58.19,1.57.46,2.22.61,1.08.25,1.34.28,3.08.28,2.14,0,2.94-.12,4.42-.67,1.22-.46,1.88-.88,2.82-1.82.72-.71.91-.97,1.29-1.76.5-1.06.64-1.56.72-2.63.11-1.46-.26-3.03-1-4.17-1.01-1.56-2.62-2.66-5.86-3.95-3.25-1.3-4.29-2.23-4.29-3.86,0-.87.26-1.44.93-2.04,1.35-1.21,3.91-1.34,6.92-.34l.91.3.25-.19c.2-.16.33-.47.67-1.6.22-.77.41-1.48.42-1.56,0-.17-.5-.42-1.42-.7C11.77.08,9.25-.14,7.38.09h0Zm11.07.54l-.23.25-.03,2.87-.03,2.87h.54c.95,0,1.23-.28,1.23-1.27,0-.73.17-.82,1.62-.86l1.21-.04v-1.7c0-1.73-.05-2-.38-2.26-.11-.09-.68-.12-1.93-.13h-1.77l-.23.25v.02Zm8.07-.01l-.24.23v24.02l.25.23.25.23,4.6.03c2.99.02,4.74,0,4.96-.07.58-.18.76-.47,1.17-1.92.37-1.25.38-1.35.23-1.57l-.15-.23h-3.03c-2.13,0-3.1-.04-3.27-.12-.56-.25-.54.21-.54-10.63V.83l-.24-.23c-.23-.24-.25-.24-2-.24s-1.77,0-2,.24h.01Zm13.89.07c-.31.3-.52.89-3.27,9.48-1.62,5.03-2.94,9.24-2.94,9.34,0,.46.19.51,2.05.51.96,0,1.82-.03,1.91-.06.1-.04.29-.34.45-.68.47-1.07.29-1.03,4.51-1l3.6.03.29.29c.24.24.44.78,1.23,3.23.58,1.83,1.01,3.01,1.14,3.16.31.33.76.41,2.48.41s2.04-.07,2.13-.41c.04-.15-.25-1.17-.77-2.77-.45-1.4-2.18-6.69-3.82-11.78-1.65-5.08-3.07-9.35-3.14-9.5-.27-.53-.49-.57-3.12-.57h-2.39l-.33.31h0Zm3.07,5.5c.31.17.17-.25,1.7,4.9.52,1.73.94,3.2.94,3.25s-.09.2-.2.3c-.19.19-.32.2-2.78.2-1.42,0-2.66-.03-2.75-.06-.41-.17-.37-.4.77-4.33.62-2.09,1.16-3.89,1.23-4.01.2-.38.64-.48,1.08-.25h0Zm-22.26-.12c-.16.17-.21.35-.21.69,0,.5-.2.98-.44,1.08-.09.03-.66.06-1.28.06h-1.11v8.36c0,9.32-.04,8.83.66,9.04.22.07.96.1,1.91.08l1.55-.03.23-.27.23-.27V5.85h-.66c-.58,0-.7.03-.88.22h0Z" fill="#15222b"/></g></svg>