<?xml version="1.0" encoding="UTF-8"?>
<svg xmlns="http://www.w3.org/2000/svg" viewBox="0 0 195.83 34.8">
<path d="m73.14,10.26c-.88,0-1.58.26-2.11.79-.53.53-.79,1.19-.79,1.99,0,.62.17,1.16.5,1.62.33.46.73.85,1.18,1.15.46.3,1.08.66,1.86,1.06,1.59.82,2.76,1.53,3.51,2.13.74.6,1.27,1.22,1.58,1.86.31.64.47,1.41.47,2.32,0,.85-.21,1.64-.63,2.39-.42.75-1.07,1.36-1.93,1.82-.86.46-1.91.69-3.15.69-1.78,0-3.16-.48-4.15-1.43-.98-.95-1.57-2.18-1.76-3.68l2.13-.37c.14,1.16.56,2.08,1.24,2.76.69.68,1.56,1.02,2.61,1.02.67,0,1.27-.13,1.8-.39.53-.26.95-.63,1.25-1.11.3-.48.45-1.04.45-1.67,0-.49-.1-.94-.3-1.35-.2-.41-.6-.86-1.2-1.34-.6-.48-1.49-1.02-2.66-1.6-1.24-.62-2.21-1.2-2.9-1.75-.69-.55-1.19-1.14-1.49-1.77-.3-.64-.45-1.41-.45-2.3,0-.81.2-1.56.61-2.26.41-.7,1-1.25,1.77-1.67.78-.42,1.68-.63,2.73-.63s1.88.2,2.64.62c.77.41,1.39.99,1.85,1.74.47.75.77,1.62.9,2.62l-2.09.28c-.04-.64-.2-1.24-.5-1.79-.3-.55-.7-.98-1.22-1.29-.51-.32-1.1-.48-1.76-.48Zm22.01,8.18c0,3.47-.48,5.94-1.43,7.42-.95,1.48-2.34,2.22-4.16,2.22s-3.32-.86-4.36-2.57v9.28h-2.11V8.98h2.11v2.14c.46-.87,1.04-1.51,1.74-1.93.7-.42,1.55-.63,2.53-.63,1.91,0,3.33.8,4.27,2.4.94,1.6,1.41,4.09,1.41,7.48Zm-9.96-.46c0,2.61.3,4.66.9,6.14.6,1.48,1.64,2.22,3.12,2.22,1.11,0,1.95-.44,2.51-1.33s.91-1.93,1.05-3.14c.15-1.21.22-2.6.22-4.18,0-4.95-1.28-7.42-3.83-7.42s-3.97,2.57-3.97,7.7Zm14.05,9.67V1.88h2.11v25.77h-2.11Zm16.43-12.74v7.8c0,.83.03,1.48.08,1.94s.15.91.29,1.33c.14.42.38.98.7,1.67h-2.18c-.31-.58-.52-1.22-.63-1.93-.49.8-1.07,1.39-1.74,1.78-.67.39-1.43.59-2.3.59-.92,0-1.74-.22-2.43-.65-.7-.44-1.23-1.03-1.6-1.78-.37-.76-.55-1.61-.55-2.56,0-1.04.16-1.91.48-2.6.32-.69.84-1.28,1.54-1.77.7-.49,1.65-.94,2.85-1.35,1.75-.6,2.91-1.09,3.48-1.47v-.95c0-.96-.06-1.78-.19-2.44-.13-.67-.4-1.21-.81-1.64-.41-.43-1.01-.64-1.81-.64-1.02,0-1.78.3-2.3.9-.51.6-.83,1.52-.96,2.76l-2.02-.3c.18-1.63.71-2.87,1.59-3.73.88-.86,2.11-1.29,3.69-1.29,1.72,0,2.96.51,3.71,1.53s1.12,2.63,1.12,4.82Zm-4.55,3.87c-.89.34-1.6.67-2.11,1-.51.33-.91.74-1.2,1.24-.28.5-.42,1.14-.42,1.92,0,1.02.24,1.84.72,2.45s1.16.92,2.04.92c.65,0,1.25-.2,1.77-.59.53-.39.95-.99,1.26-1.8.31-.81.47-1.81.47-3.01v-3.27c-.55.31-1.4.69-2.53,1.12Zm12.92-8.51c-.88,0-1.58.26-2.11.79-.53.53-.79,1.19-.79,1.99,0,.62.17,1.16.5,1.62.33.46.73.85,1.18,1.15.46.3,1.08.66,1.86,1.06,1.59.82,2.76,1.53,3.51,2.13.74.6,1.27,1.22,1.58,1.86.31.64.47,1.41.47,2.32,0,.85-.21,1.64-.63,2.39-.42.75-1.07,1.36-1.93,1.82-.86.46-1.91.69-3.15.69-1.78,0-3.16-.48-4.15-1.43-.98-.95-1.57-2.18-1.76-3.68l2.13-.37c.14,1.16.56,2.08,1.24,2.76.69.68,1.56,1.02,2.61,1.02.67,0,1.27-.13,1.8-.39.53-.26.95-.63,1.25-1.11.3-.48.45-1.04.45-1.67,0-.49-.1-.94-.3-1.35-.2-.41-.6-.86-1.2-1.34-.6-.48-1.49-1.02-2.66-1.6-1.24-.62-2.21-1.2-2.9-1.75-.69-.55-1.19-1.14-1.49-1.77-.3-.64-.45-1.41-.45-2.3,0-.81.2-1.56.61-2.26.41-.7,1-1.25,1.77-1.67.78-.42,1.68-.63,2.73-.63s1.88.2,2.64.62c.77.41,1.39.99,1.85,1.74.47.75.77,1.62.9,2.62l-2.09.28c-.04-.64-.2-1.24-.5-1.79-.3-.55-.7-.98-1.22-1.29-.51-.32-1.1-.48-1.76-.48Zm16.65-1.71c3.05,0,4.57,1.71,4.57,5.13v13.96h-2.11v-13.38c0-.85-.07-1.56-.2-2.13s-.4-1.01-.79-1.34c-.39-.33-.96-.49-1.7-.49-1.47,0-2.56.55-3.28,1.66-.72,1.11-1.08,2.67-1.08,4.68v10.99h-2.11V1.88h2.11v9.02c1.07-1.56,2.6-2.34,4.59-2.34Zm9.55,19.09V1.88h2.11v25.77h-2.11Zm16.43-12.74v7.8c0,.83.03,1.48.08,1.94.05.46.15.91.29,1.33.14.42.38.98.7,1.67h-2.18c-.31-.58-.52-1.22-.63-1.93-.49.8-1.07,1.39-1.74,1.78-.67.39-1.43.59-2.3.59-.92,0-1.74-.22-2.43-.65-.7-.44-1.23-1.03-1.6-1.78-.37-.76-.55-1.61-.55-2.56,0-1.04.16-1.91.48-2.6.32-.69.84-1.28,1.54-1.77.7-.49,1.65-.94,2.85-1.35,1.75-.6,2.91-1.09,3.48-1.47v-.95c0-.96-.06-1.78-.19-2.44-.13-.67-.4-1.21-.81-1.64-.41-.43-1.01-.64-1.81-.64-1.02,0-1.78.3-2.3.9-.51.6-.83,1.52-.96,2.76l-2.02-.3c.18-1.63.71-2.87,1.59-3.73.88-.86,2.11-1.29,3.69-1.29,1.72,0,2.96.51,3.71,1.53s1.12,2.63,1.12,4.82Zm-4.55,3.87c-.89.34-1.6.67-2.11,1-.51.33-.91.74-1.2,1.24-.28.5-.42,1.14-.42,1.92,0,1.02.24,1.84.72,2.45s1.16.92,2.04.92c.65,0,1.25-.2,1.77-.59.53-.39.95-.99,1.26-1.8.31-.81.47-1.81.47-3.01v-3.27c-.55.31-1.4.69-2.53,1.12Zm17.56-9.79h2.41l-5.53,6.63,6.01,12.04h-2.34l-5.06-10.37-1.69,2.06v8.31h-2.11V1.88h2.11v14.91l6.21-7.8Zm16.15,8.07v1.57h-9.81c.04,1.88.2,3.38.5,4.5s.75,1.94,1.34,2.45c.59.5,1.36.75,2.31.75,1.09,0,1.94-.39,2.54-1.18.6-.79.96-1.98,1.08-3.57l2.02.33c-.33,4.12-2.21,6.19-5.66,6.19-1.51,0-2.73-.38-3.66-1.13-.93-.76-1.6-1.88-2.01-3.36-.42-1.48-.62-3.36-.62-5.64,0-3.27.51-5.65,1.54-7.15,1.03-1.5,2.53-2.25,4.5-2.25s3.45.67,4.44,2.01c.99,1.34,1.48,3.5,1.48,6.48Zm-9.83-.24h7.66c0-1.58-.13-2.85-.39-3.8-.26-.95-.66-1.64-1.2-2.07-.54-.44-1.25-.65-2.14-.65-1.07,0-1.89.32-2.48.98-.58.65-.96,1.43-1.13,2.34-.17.91-.28,1.98-.32,3.21ZM2.09,17.67c0,5.99,1.37,11.36,4.11,16.12h-1.72C1.5,28.39,0,23.14,0,18.02,0,11.88,1.65,5.87,4.94,0h1.41c-1.33,2.73-2.37,5.7-3.12,8.9-.75,3.2-1.13,6.12-1.13,8.77Zm10.13,0c0,5.99,1.37,11.36,4.11,16.12h-1.72c-2.99-5.39-4.49-10.64-4.49-15.76C10.13,11.88,11.77,5.87,15.07,0h1.41c-1.33,2.73-2.37,5.7-3.12,8.9-.75,3.2-1.13,6.12-1.13,8.77Zm13.94-1.35l4.75-2.03.68,2.03-4.94,1.27,3.38,4-1.76,1.25-2.85-4.37-2.71,4.37-1.76-1.25,3.32-3.98-5.06-1.29.73-2.03,4.78,2.03-.45-5.31h2.23l-.33,5.31Zm14.57,1.7c0,5.12-1.49,10.38-4.49,15.76h-1.72c2.74-4.78,4.11-10.15,4.11-16.12,0-2.61-.38-5.52-1.14-8.73C36.74,5.73,35.7,2.75,34.38,0h1.41c3.29,5.84,4.94,11.84,4.94,18.02Zm10.13,0c0,5.12-1.49,10.38-4.49,15.76h-1.72c2.74-4.78,4.11-10.15,4.11-16.12,0-2.61-.38-5.52-1.14-8.73C46.87,5.73,45.83,2.75,44.51,0h1.41c3.29,5.84,4.94,11.84,4.94,18.02Z"/>
</svg>
