<?xml version="1.0" encoding="UTF-8" standalone="no"?>
<!-- Created with Inkscape (http://www.inkscape.org/) -->

<svg
   width="69.083061mm"
   height="12.278095mm"
   viewBox="0 0 69.083061 12.278095"
   version="1.1"
   id="svg5"
   xmlns="http://www.w3.org/2000/svg"
   xmlns:svg="http://www.w3.org/2000/svg">
  <defs
     id="defs2" />
  <g
     id="layer1"
     transform="translate(-15.52045,-39.948777)">
    <g
       id="Hintergrund"
       transform="matrix(0.35277778,0,0,0.35277778,-68.178195,-51.897271)">
      <g
         transform="translate(304.982,262.23)"
         id="Gruppe4"
         style="fill:none;stroke:none">
        <path
           transform="translate(0,6.67875)"
           d="m 5.415,1.70625 c -0.88,0 -1.58375,0.26375 -2.11125,0.79125 -0.525,0.5275 -0.7875,1.19 -0.7875,1.9875 0,0.62 0.16625,1.16125 0.49875,1.62375 C 3.35,6.57125 3.745,6.955 4.2,7.26 c 0.4575,0.305 1.07875,0.6575 1.86375,1.0575 1.595,0.82 2.76375,1.52875 3.50625,2.1263 0.745,0.5975 1.2725,1.2187 1.5825,1.8637 0.3125,0.6425 0.4688,1.415 0.4688,2.3175 0,0.845 -0.2113,1.6425 -0.6338,2.3925 -0.4225,0.75 -1.065,1.3562 -1.9275,1.8188 C 8.2,19.2988 7.14875,19.53 5.90625,19.53 c -1.78,0 -3.1625,-0.4775 -4.1475,-1.4325 C 0.77375,17.1425 0.1875,15.915 0,14.415 l 2.12625,-0.3675 c 0.1425,1.16 0.55625,2.08 1.24125,2.76 0.685,0.6775 1.555,1.0163 2.61,1.0163 0.6675,0 1.2675,-0.1288 1.8,-0.3863 0.535,-0.2575 0.95125,-0.6263 1.24875,-1.1062 0.3,-0.48 0.45,-1.0363 0.45,-1.6688 0,-0.4925 -0.1,-0.9437 -0.3,-1.3537 C 8.97625,12.8987 8.575,12.4538 7.9725,11.9737 7.37,11.4913 6.4825,10.9575 5.31,10.3725 4.0675,9.7525 3.1,9.17 2.4075,8.625 1.7175,8.08 1.2225,7.48875 0.9225,6.85125 0.625,6.21125 0.47625,5.445 0.47625,4.5525 c 0,-0.8075 0.205,-1.56 0.615,-2.2575 C 1.50125,1.5975 2.0925,1.04125 2.865,0.62625 3.64,0.20875 4.54875,0 5.59125,0 6.58625,0 7.4675,0.205 8.235,0.615 c 0.7675,0.41 1.385,0.99 1.8525,1.74 0.47,0.75 0.77,1.62375 0.9,2.62125 L 8.895,5.2575 C 8.86,4.6125 8.6925,4.0175 8.3925,3.4725 8.095,2.9275 7.68875,2.4975 7.17375,2.1825 6.65875,1.865 6.0725,1.70625 5.415,1.70625 Z"
           style="fill:#000000;fill-rule:nonzero;stroke:none"
           id="path83" />
        <path
           transform="translate(15.3707,6.67875)"
           d="m 12.0563,9.88125 c 0,3.46745 -0.475,5.94255 -1.425,7.42495 C 9.68375,18.7888 8.29625,19.53 6.46875,19.53 4.60375,19.53 3.15,18.675 2.1075,16.965 v 9.2813 H 0 V 0.42375 h 2.1075 v 2.145 C 2.565,1.70125 3.145,1.05625 3.8475,0.63375 4.5525,0.21125 5.39625,0 6.37875,0 8.28875,0 9.7125,0.8 10.65,2.4 11.5875,4 12.0563,6.49375 12.0563,9.88125 Z M 2.0925,9.42375 c 0,2.61245 0.30125,4.66005 0.90375,6.14245 0.6025,1.4826 1.6425,2.2238 3.12,2.2238 1.1125,0 1.9475,-0.4425 2.505,-1.3275 0.5575,-0.885 0.90875,-1.93 1.05375,-3.135 0.1475,-1.2075 0.22125,-2.6025 0.22125,-4.185 0,-4.945 -1.2775,-7.4175 -3.8325,-7.4175 -2.6475,0 -3.97125,2.56625 -3.97125,7.69875 z"
           style="fill:#000000;fill-rule:nonzero;stroke:none"
           id="path85" />
        <path
           transform="translate(31.5131)"
           d="M 0,25.77 V 0 h 2.1075 v 25.77 z"
           style="fill:#000000;fill-rule:nonzero;stroke:none"
           id="path87" />
        <path
           transform="translate(37.5672,6.67875)"
           d="m 10.3725,6.34875 v 7.80375 c 0,0.8325 0.0263,1.48 0.0788,1.9425 0.0525,0.4625 0.1487,0.905 0.2887,1.3275 0.14,0.42 0.375,0.9763 0.705,1.6688 H 9.2625 c -0.305,-0.575 -0.515,-1.22 -0.63,-1.935 C 8.14,17.9538 7.55875,18.5488 6.88875,18.9412 6.22125,19.3338 5.45375,19.53 4.58625,19.53 3.66125,19.53 2.85,19.3138 2.1525,18.8813 1.455,18.4462 0.92125,17.8513 0.55125,17.0963 0.18375,16.3412 0,15.4888 0,14.5388 0,13.4963 0.16125,12.63 0.48375,11.94 0.80625,11.2475 1.31875,10.6588 2.02125,10.1738 2.72375,9.68625 3.6725,9.23625 4.8675,8.82375 6.615,8.22625 7.77625,7.735 8.35125,7.35 V 6.40125 c 0,-0.9625 -0.065,-1.7775 -0.195,-2.445 -0.13,-0.6675 -0.4,-1.215 -0.81,-1.6425 -0.41,-0.4275 -1.0125,-0.64125 -1.8075,-0.64125 -1.02,0 -1.785,0.29875 -2.295,0.89625 -0.51,0.5975 -0.83,1.5175 -0.96,2.76 l -2.02125,-0.3 C 0.44,3.39875 0.97,2.15375 1.8525,1.29375 2.7375,0.43125 3.96625,0 5.53875,0 7.26125,0 8.4975,0.51 9.2475,1.53 c 0.75,1.02 1.125,2.62625 1.125,4.81875 z M 5.82,10.215 c -0.8925,0.34 -1.59625,0.6737 -2.11125,1.0013 -0.515,0.3275 -0.91375,0.7412 -1.19625,1.2412 -0.28,0.4975 -0.42,1.1387 -0.42,1.9238 0,1.02 0.24,1.8375 0.72,2.4525 0.48,0.615 1.16,0.9225 2.04,0.9225 0.655,0 1.24625,-0.1963 1.77375,-0.5888 C 7.15375,16.775 7.5725,16.175 7.8825,15.3675 8.195,14.5575 8.35125,13.555 8.35125,12.36 V 9.09 C 7.79875,9.405 6.955,9.78 5.82,10.215 Z"
           style="fill:#000000;fill-rule:nonzero;stroke:none"
           id="path89" />
        <path
           transform="translate(50.8896,6.67875)"
           d="m 5.415,1.70625 c -0.88,0 -1.58375,0.26375 -2.11125,0.79125 -0.525,0.5275 -0.7875,1.19 -0.7875,1.9875 0,0.62 0.16625,1.16125 0.49875,1.62375 C 3.35,6.57125 3.745,6.955 4.2,7.26 c 0.4575,0.305 1.07875,0.6575 1.86375,1.0575 1.595,0.82 2.76375,1.52875 3.50625,2.1263 0.745,0.5975 1.2725,1.2187 1.5825,1.8637 0.3125,0.6425 0.4688,1.415 0.4688,2.3175 0,0.845 -0.2113,1.6425 -0.6338,2.3925 -0.4225,0.75 -1.065,1.3562 -1.9275,1.8188 C 8.2,19.2988 7.14875,19.53 5.90625,19.53 c -1.78,0 -3.1625,-0.4775 -4.1475,-1.4325 C 0.77375,17.1425 0.1875,15.915 0,14.415 l 2.12625,-0.3675 c 0.1425,1.16 0.55625,2.08 1.24125,2.76 0.685,0.6775 1.555,1.0163 2.61,1.0163 0.6675,0 1.2675,-0.1288 1.8,-0.3863 0.535,-0.2575 0.95125,-0.6263 1.24875,-1.1062 0.3,-0.48 0.45,-1.0363 0.45,-1.6688 0,-0.4925 -0.1,-0.9437 -0.3,-1.3537 C 8.97625,12.8987 8.575,12.4538 7.9725,11.9737 7.37,11.4913 6.4825,10.9575 5.31,10.3725 4.0675,9.7525 3.1,9.17 2.4075,8.625 1.7175,8.08 1.2225,7.48875 0.9225,6.85125 0.625,6.21125 0.47625,5.445 0.47625,4.5525 c 0,-0.8075 0.205,-1.56 0.615,-2.2575 C 1.50125,1.5975 2.0925,1.04125 2.865,0.62625 3.64,0.20875 4.54875,0 5.59125,0 6.58625,0 7.4675,0.205 8.235,0.615 c 0.7675,0.41 1.385,0.99 1.8525,1.74 0.47,0.75 0.77,1.62375 0.9,2.62125 L 8.895,5.2575 C 8.86,4.6125 8.6925,4.0175 8.3925,3.4725 8.095,2.9275 7.68875,2.4975 7.17375,2.1825 6.65875,1.865 6.0725,1.70625 5.415,1.70625 Z"
           style="fill:#000000;fill-rule:nonzero;stroke:none"
           id="path91" />
        <path
           transform="translate(66.2603)"
           d="m 6.6975,6.67875 c 3.045,0 4.5675,1.71125 4.5675,5.13375 V 25.77 H 9.1575 V 12.3938 C 9.1575,11.5388 9.09,10.83 8.955,10.2675 8.82,9.705 8.55625,9.26 8.16375,8.9325 c -0.3925,-0.33 -0.9575,-0.495 -1.695,-0.495 -1.465,0 -2.55875,0.55375 -3.28125,1.6612 -0.72,1.1076 -1.08,2.6688 -1.08,4.6838 V 25.77 H 0 V 0 h 2.1075 v 9.01875 c 1.0675,-1.56 2.5975,-2.34 4.59,-2.34 z"
           style="fill:#000000;fill-rule:nonzero;stroke:none"
           id="path93" />
        <path
           transform="translate(82.5106)"
           d="M 0,25.77 V 0 h 2.1075 v 25.77 z"
           style="fill:#000000;fill-rule:nonzero;stroke:none"
           id="path95" />
        <path
           transform="translate(88.5648,6.67875)"
           d="m 10.3725,6.34875 v 7.80375 c 0,0.8325 0.0263,1.48 0.0787,1.9425 0.0525,0.4625 0.1488,0.905 0.2888,1.3275 0.14,0.42 0.375,0.9763 0.705,1.6688 H 9.2625 c -0.305,-0.575 -0.515,-1.22 -0.63,-1.935 C 8.14,17.9538 7.55875,18.5488 6.88875,18.9412 6.22125,19.3338 5.45375,19.53 4.58625,19.53 3.66125,19.53 2.85,19.3138 2.1525,18.8813 1.455,18.4462 0.92125,17.8513 0.55125,17.0963 0.18375,16.3412 0,15.4888 0,14.5388 0,13.4963 0.16125,12.63 0.48375,11.94 0.80625,11.2475 1.31875,10.6588 2.02125,10.1738 2.72375,9.68625 3.6725,9.23625 4.8675,8.82375 6.615,8.22625 7.77625,7.735 8.35125,7.35 V 6.40125 c 0,-0.9625 -0.065,-1.7775 -0.195,-2.445 -0.13,-0.6675 -0.4,-1.215 -0.81,-1.6425 -0.41,-0.4275 -1.0125,-0.64125 -1.8075,-0.64125 -1.02,0 -1.785,0.29875 -2.295,0.89625 -0.51,0.5975 -0.83,1.5175 -0.96,2.76 l -2.02125,-0.3 C 0.44,3.39875 0.97,2.15375 1.8525,1.29375 2.7375,0.43125 3.96625,0 5.53875,0 7.26125,0 8.4975,0.51 9.2475,1.53 c 0.75,1.02 1.125,2.62625 1.125,4.81875 z M 5.82,10.215 c -0.8925,0.34 -1.59625,0.6737 -2.11125,1.0013 -0.515,0.3275 -0.91375,0.7412 -1.19625,1.2412 -0.28,0.4975 -0.42,1.1387 -0.42,1.9238 0,1.02 0.24,1.8375 0.72,2.4525 0.48,0.615 1.16,0.9225 2.04,0.9225 0.655,0 1.24625,-0.1963 1.77375,-0.5888 C 7.15375,16.775 7.5725,16.175 7.8825,15.3675 8.195,14.5575 8.35125,13.555 8.35125,12.36 V 9.09 C 7.79875,9.405 6.955,9.78 5.82,10.215 Z"
           style="fill:#000000;fill-rule:nonzero;stroke:none"
           id="path97" />
        <path
           transform="translate(103.635)"
           d="M 8.31375,7.1025 H 10.7212 L 5.18625,13.7288 11.1975,25.77 h -2.34 L 3.795,15.3975 2.1075,17.4563 V 25.77 H 0 V 0 h 2.1075 v 14.9063 z"
           style="fill:#000000;fill-rule:nonzero;stroke:none"
           id="path99" />
        <path
           transform="translate(116.13,6.67875)"
           d="m 11.97,8.49 v 1.5675 H 2.16 c 0.035,1.875 0.2025,3.375 0.5025,4.5 0.3,1.125 0.745,1.94 1.335,2.445 0.5925,0.5025 1.36375,0.7538 2.31375,0.7538 1.09,0 1.93625,-0.3925 2.53875,-1.1775 0.6025,-0.7851 0.9625,-1.975 1.08,-3.5701 l 2.0213,0.3338 C 11.6238,17.4675 9.7375,19.53 6.2925,19.53 4.78,19.53 3.56125,19.1525 2.63625,18.3975 1.71125,17.64 1.04,16.5213 0.6225,15.0412 0.2075,13.5588 0,11.68 0,9.405 0,6.135 0.515,3.75 1.545,2.25 2.5775,0.75 4.0775,0 6.045,0 c 1.97,0 3.45,0.66875 4.44,2.00625 0.99,1.335 1.485,3.49625 1.485,6.48375 z M 2.145,8.24625 H 9.80625 C 9.80625,6.66375 9.6775,5.39875 9.42,4.45125 9.1625,3.50125 8.76375,2.81 8.22375,2.3775 7.68625,1.9425 6.9725,1.725 6.0825,1.725 5.015,1.725 4.1875,2.05 3.6,2.7 3.015,3.35 2.6375,4.13 2.4675,5.04 2.2975,5.9475 2.19,7.01625 2.145,8.24625 Z"
           style="fill:#000000;fill-rule:nonzero;stroke:none"
           id="path101" />
      </g>
      <g
         transform="translate(237.256,260.351)"
         id="Gruppe5"
         style="fill:none;stroke:none">
        <path
           d="m 2.0925,17.6662 c 0,5.9875 1.37125,11.3601 4.11375,16.1175 H 4.485 C 1.495,28.3937 0,23.1387 0,18.0187 0,11.8762 1.6475,5.87 4.9425,0 H 6.34875 C 5.02375,2.73 3.9825,5.695 3.225,8.895 2.47,12.0925 2.0925,15.0163 2.0925,17.6662 Z"
           style="fill:#000000;fill-rule:nonzero;stroke:none"
           id="path104" />
        <path
           transform="translate(10.1268)"
           d="m 2.0925,17.6662 c 0,5.9875 1.37125,11.3601 4.11375,16.1175 H 4.485 C 1.495,28.3937 0,23.1387 0,18.0187 0,11.8762 1.6475,5.87 4.9425,0 H 6.34875 C 5.02375,2.73 3.9825,5.695 3.225,8.895 2.47,12.0925 2.0925,15.0163 2.0925,17.6662 Z"
           style="fill:#000000;fill-rule:nonzero;stroke:none"
           id="path106" />
      </g>
      <path
         transform="translate(256.457,271.359)"
         d="M 6.95359,5.31063 11.6991,3.28219 12.384,5.31063 7.44386,6.58309 10.8234,10.5838 9.06437,11.8338 6.21258,7.45883 3.49925,11.8338 1.74027,10.5838 5.05988,6.6018 0,5.31063 0.726048,3.28219 5.50898,5.31063 5.05988,0 h 2.2268 z"
         style="fill:#000000;fill-rule:nonzero;stroke:none"
         id="path109" />
      <g
         transform="translate(271.636,260.351)"
         id="Gruppe6"
         style="fill:none;stroke:none">
        <path
           d="m 6.345,18.0187 c 0,5.12 -1.495,10.375 -4.485,15.765 H 0.13875 C 2.88125,29.0037 4.2525,23.6312 4.2525,17.6662 4.2525,15.0538 3.87375,12.145 3.11625,8.94 2.36125,5.7325 1.3225,2.7525 0,0 H 1.40625 C 4.69875,5.835 6.345,11.8412 6.345,18.0187 Z"
           style="fill:#000000;fill-rule:nonzero;stroke:none"
           id="path111" />
        <path
           transform="translate(10.1268)"
           d="m 6.345,18.0187 c 0,5.12 -1.495,10.375 -4.485,15.765 H 0.13875 C 2.88125,29.0037 4.2525,23.6312 4.2525,17.6662 4.2525,15.0538 3.87375,12.145 3.11625,8.94 2.36125,5.7325 1.3225,2.7525 0,0 H 1.40625 C 4.69875,5.835 6.345,11.8412 6.345,18.0187 Z"
           style="fill:#000000;fill-rule:nonzero;stroke:none"
           id="path113" />
      </g>
    </g>
  </g>
</svg>
