<svg xmlns="http://www.w3.org/2000/svg" viewBox="0 0 64 64">
  <style>
    #mode { fill: #025159; }
    @media (prefers-color-scheme: dark) {
      #mode { fill: #F9FAFB; }
    }
  </style>
  <path id="mode" d="M49.34,10.01V31.98c0,9.6-7.78,17.38-17.38,17.38s-17.38-7.78-17.38-17.38V10.01L4.25,15.98v28.39c0,2.23,1.19,4.3,3.13,5.41l21.46,12.39c1.93,1.12,4.32,1.12,6.25,0l21.46-12.39c1.93-1.12,3.13-3.18,3.13-5.41V15.98l-10.34-5.97Z"/>
  <path fill="#ffb566" d="M35.09,1.78c-1.93-1.12-4.32-1.12-6.25,0l-5.25,3.03V31.98c0,4.63,3.75,8.38,8.38,8.38s8.38-3.75,8.38-8.38V4.81l-5.25-3.03Z"/>
  <path fill="#ff8400" d="M23.59,4.81V31.98c0,4.63,3.75,8.38,8.38,8.38s8.38-3.75,8.38-8.38V14.49L23.59,4.81Z"/>
  <path fill="#fff3e6" d="M34.84,7.1c1.47,0,2.67,1.19,2.67,2.67s-1.19,2.67-2.67,2.67-2.67-1.19-2.67-2.67,1.19-2.67,2.67-2.67Zm-8.01,5.34c0,.91,.74,1.64,1.64,1.64s1.64-.74,1.64-1.64-.74-1.64-1.64-1.64-1.64,.74-1.64,1.64Zm2.46,5.34c0,.68,.55,1.23,1.23,1.23s1.23-.55,1.23-1.23-.55-1.23-1.23-1.23-1.23,.55-1.23,1.23Z"/>
</svg>
