<svg xmlns="http://www.w3.org/2000/svg" viewBox="0 0 390.62 100">
    <title>UniteLabs</title>
    <g>
        <path fill="#F9FAFB" d="M77.18,15.69V50.02c0,14.99-12.15,27.15-27.15,27.15s-27.15-12.15-27.15-27.15V15.69L6.73,25.02v44.36c0,3.49,1.86,6.71,4.88,8.46l33.54,19.36c3.02,1.74,6.74,1.74,9.77,0l33.54-19.36c3.02-1.74,4.88-4.97,4.88-8.46V25.02l-16.15-9.33Z"/>
        <path fill="#ffb566" d="M54.91,2.84c-3.02-1.74-6.74-1.74-9.77,0l-8.2,4.74V50.02c0,7.23,5.86,13.09,13.09,13.09s13.09-5.86,13.09-13.09V7.58l-8.2-4.74Z"/>
        <path fill="#ff8400" d="M36.95,7.58V50.02c0,7.23,5.86,13.09,13.09,13.09s13.09-5.86,13.09-13.09V22.69L36.95,7.58Z"/>
        <circle fill="#fff3e6" cx="54.52" cy="15.32" r="4.17"/>
        <circle fill="#fff3e6" cx="44.58" cy="19.49" r="2.57"/>
        <circle fill="#fff3e6" cx="47.79" cy="27.83" r="1.92"/>
    </g>
    <g>
        <path fill="#ff8400" d="M141.15,25.36c-.77-.59-1.98-.88-3.62-.88-.8,0-1.59,.07-2.39,.21-.8,.14-1.38,.26-1.76,.35V59.46c0,3-.84,5.31-2.53,6.93-1.69,1.62-3.8,2.43-6.33,2.43s-4.7-.81-6.36-2.43c-1.66-1.62-2.5-3.93-2.5-6.93V28.63c0-1.59-.38-2.68-1.13-3.27-.75-.59-1.97-.88-3.66-.88-.8,0-1.58,.07-2.36,.21-.77,.14-1.35,.26-1.72,.35V59.81c0,3.28,.69,6.14,2.07,8.58,1.38,2.44,3.41,4.32,6.08,5.66,2.67,1.34,5.86,2,9.56,2s6.95-.67,9.6-2c2.65-1.34,4.68-3.22,6.08-5.66,1.41-2.44,2.11-5.3,2.11-8.58V28.63c0-1.59-.39-2.68-1.16-3.27Z"/>
        <path fill="#ff8400" d="M175.11,43.92c-2.65-2.11-6.34-3.16-11.07-3.16-2.72,0-5.19,.32-7.42,.95-2.23,.63-4.04,1.42-5.45,2.36-.94,.61-1.64,1.28-2.11,2-.47,.73-.7,1.65-.7,2.78v22.57c0,1.5,.39,2.54,1.16,3.13s1.96,.88,3.55,.88c.84,0,1.62-.06,2.32-.18,.7-.12,1.24-.25,1.62-.39v-25.45c.89-.47,1.91-.88,3.06-1.23,1.15-.35,2.45-.53,3.9-.53,1.97,0,3.54,.48,4.71,1.44,1.17,.96,1.76,2.47,1.76,4.54v17.79c0,1.5,.39,2.54,1.16,3.13,.77,.59,1.98,.88,3.62,.88,.8,0,1.56-.06,2.29-.18,.73-.12,1.25-.25,1.58-.39v-21.59c0-4.12-1.33-7.24-3.97-9.35Z"/>
        <path fill="#ff8400" d="M192.51,42.34c-.75-.59-1.95-.88-3.59-.88-.84,0-1.63,.06-2.36,.18-.73,.12-1.28,.25-1.65,.39v29.39c0,1.5,.4,2.54,1.2,3.13,.8,.59,1.99,.88,3.59,.88,.84,0,1.62-.06,2.32-.18,.7-.12,1.24-.25,1.62-.39v-29.32c0-1.55-.38-2.61-1.12-3.2Z"/>
        <path fill="#ff8400" d="M218.1,68.04c-.61,.28-1.35,.52-2.22,.7-.87,.19-1.68,.28-2.43,.28-1.69,0-2.99-.33-3.9-.98-.91-.66-1.37-1.76-1.37-3.3v-15.47h8.3c.89,0,1.62-.29,2.18-.88,.56-.59,.84-1.46,.84-2.64,0-.66-.11-1.29-.32-1.9-.21-.61-.41-1.08-.6-1.41h-10.41v-6.05c0-1.5-.38-2.54-1.12-3.13-.75-.59-1.95-.88-3.59-.88-.8,0-1.56,.07-2.29,.21-.73,.14-1.28,.28-1.65,.42v32.34c0,3.75,1.07,6.46,3.2,8.12,2.13,1.66,5.05,2.5,8.75,2.5,2.72,0,4.72-.45,6.01-1.34,1.29-.89,1.93-2.01,1.93-3.38,0-.75-.14-1.38-.42-1.9-.28-.52-.59-.96-.91-1.34Z"/>
        <path fill="#ff8400" d="M226.05,62.77l-.35-6.05,18.84-2.81c-.14-1.78-.82-3.33-2.04-4.64-1.22-1.31-3-1.97-5.34-1.97s-4.38,.83-5.98,2.5c-1.59,1.66-2.41,4.04-2.46,7.14l.21,3.66c.42,3,1.58,5.2,3.48,6.61,1.9,1.41,4.3,2.11,7.21,2.11,1.97,0,3.8-.29,5.48-.88,1.69-.59,3.02-1.23,4.01-1.93,.66,.42,1.18,.95,1.58,1.58,.4,.63,.6,1.33,.6,2.07,0,1.22-.54,2.26-1.62,3.13-1.08,.87-2.53,1.54-4.36,2-1.83,.47-3.91,.7-6.26,.7-3.61,0-6.81-.67-9.6-2-2.79-1.34-4.97-3.34-6.54-6.01-1.57-2.67-2.36-6-2.36-9.98,0-2.86,.44-5.37,1.34-7.52,.89-2.16,2.1-3.95,3.62-5.38,1.52-1.43,3.29-2.51,5.31-3.23,2.01-.73,4.12-1.09,6.33-1.09,3.09,0,5.8,.62,8.12,1.86,2.32,1.24,4.15,2.97,5.48,5.17,1.34,2.2,2,4.74,2,7.59,0,1.31-.34,2.29-1.02,2.92-.68,.63-1.63,1.02-2.85,1.16l-22.85,3.3Z"/>
        <path fill="#F9FAFB" d="M285.01,69.23c-.21-.61-.46-1.1-.74-1.48h-18.21V28.7c0-1.59-.38-2.68-1.13-3.27-.75-.59-1.97-.88-3.66-.88-.8,0-1.58,.07-2.36,.21-.77,.14-1.37,.26-1.79,.35v45.25c0,1.41,.43,2.54,1.3,3.41,.87,.87,2.03,1.3,3.48,1.3h20.18c.98,0,1.77-.32,2.36-.95,.59-.63,.88-1.58,.88-2.85,0-.75-.11-1.43-.32-2.04Z"/>
        <path fill="#F9FAFB" d="M301.07,40.76c4.59,0,8.25,.97,10.97,2.92,2.72,1.95,4.08,5,4.08,9.18v16.17c0,1.12-.27,2.02-.81,2.67-.54,.66-1.23,1.24-2.07,1.76-1.31,.75-2.98,1.37-4.99,1.86-2.02,.49-4.29,.74-6.82,.74-4.69,0-8.37-.9-11.04-2.71-2.67-1.8-4.01-4.49-4.01-8.05,0-3.14,1-5.54,2.99-7.21,1.99-1.66,4.89-2.68,8.68-3.06l9.56-.98v-1.27c0-1.87-.64-3.23-1.93-4.08-1.29-.84-3.11-1.27-5.45-1.27-1.83,0-3.61,.24-5.34,.7-1.73,.47-3.28,1.03-4.64,1.69-.47-.37-.89-.89-1.27-1.55-.38-.66-.56-1.34-.56-2.04,0-1.69,.94-2.93,2.81-3.73,1.31-.61,2.85-1.05,4.61-1.34,1.76-.28,3.5-.42,5.24-.42Zm.35,28.69c1.41,0,2.67-.14,3.8-.42,1.12-.28,1.94-.59,2.46-.91v-8.02l-6.96,.7c-1.92,.14-3.39,.55-4.39,1.23-1.01,.68-1.51,1.68-1.51,2.99s.54,2.44,1.62,3.23c1.08,.8,2.74,1.2,4.99,1.2Z"/>
        <path fill="#F9FAFB" d="M351.98,48.53c-1.41-2.6-3.32-4.55-5.73-5.84-2.41-1.29-5.12-1.93-8.12-1.93-2.16,0-4.04,.32-5.66,.95-.81,.32-1.54,.63-2.21,.95v-9.92c0-1.5-.38-2.54-1.12-3.13-.75-.59-1.95-.88-3.59-.88-.84,0-1.62,.07-2.32,.21s-1.24,.26-1.62,.35v38.67c0,1.08,.22,1.98,.67,2.71,.44,.73,1.16,1.44,2.14,2.14,1.36,.84,3.03,1.58,5.03,2.21,1.99,.63,4.32,.95,7,.95,3.52,0,6.6-.66,9.25-1.97,2.65-1.31,4.71-3.28,6.19-5.91,1.48-2.62,2.21-5.91,2.21-9.84s-.7-7.14-2.11-9.74Zm-9.18,17.89c-1.62,1.78-3.76,2.67-6.43,2.67-1.36,0-2.57-.18-3.62-.53-1.05-.35-1.89-.74-2.5-1.16v-17.72c.6-.41,1.25-.78,1.97-1.13,1.27-.61,2.72-.91,4.36-.91,2.58,0,4.66,.84,6.26,2.53,1.59,1.69,2.39,4.38,2.39,8.09s-.81,6.38-2.43,8.16Z"/>
        <path fill="#F9FAFB" d="M383.69,65.58c0,3.28-1.22,5.85-3.66,7.7-2.44,1.85-5.98,2.78-10.62,2.78-3.75,0-6.82-.56-9.21-1.69-2.39-1.12-3.59-2.62-3.59-4.5,0-.8,.19-1.53,.56-2.21,.37-.68,.87-1.21,1.48-1.58,1.31,.84,2.84,1.59,4.57,2.25,1.73,.66,3.7,.98,5.91,.98,3.98,0,5.98-1.22,5.98-3.66,0-1.03-.35-1.86-1.05-2.5-.7-.63-1.78-1.09-3.23-1.37l-4.01-1.05c-3.42-.75-5.97-1.92-7.63-3.52-1.66-1.59-2.5-3.73-2.5-6.4,0-2.95,1.22-5.38,3.66-7.28,2.44-1.9,5.81-2.85,10.12-2.85,2.25,0,4.26,.22,6.05,.67,1.78,.45,3.17,1.09,4.18,1.93,1.01,.84,1.51,1.85,1.51,3.02,0,.8-.18,1.51-.53,2.14-.35,.63-.81,1.11-1.37,1.44-.56-.33-1.32-.69-2.29-1.09-.96-.4-2.05-.73-3.27-.98-1.22-.26-2.44-.39-3.66-.39-1.83,0-3.27,.29-4.32,.88-1.05,.59-1.58,1.42-1.58,2.5,0,.8,.3,1.48,.91,2.04,.61,.56,1.64,1.01,3.09,1.34l3.59,.84c3.8,.89,6.56,2.19,8.3,3.9,1.73,1.71,2.6,3.93,2.6,6.64Z"/>
    </g>
</svg>